<?xml version="1.0" encoding="utf-8"?>
<!-- Generator: Adobe Illustrator 23.0.2, SVG Export Plug-In . SVG Version: 6.00 Build 0)  -->
<svg version="1.1" id="图层_1" xmlns="http://www.w3.org/2000/svg" xmlns:xlink="http://www.w3.org/1999/xlink" x="0px" y="0px"
	 viewBox="0 0 200 50" style="enable-background:new 0 0 200 50;" xml:space="preserve">
<style type="text/css">
	.st0{fill:#FFFFFF;}
</style>
<title>TIMEZEN. Copy 2</title>
<desc>Created with Sketch.</desc>
<g>
	<g>
		<g>
			<path class="st0" d="M5.3,19.8c0.5-0.5,0.8-1,1.5-1.3c2.3-1.5,4.2-3.5,5.3-6c0.9-1.5,0.5-2.2-0.5-3.3c0-0.2,0.2-0.3,0.2-0.5
				c1.5,0.5,3.2,1,4.7,1.7c0.2,0,0,1.5-0.3,1.8c-2.6,2.1-5.2,4.3-7.7,6.4c-0.2,0.2-0.3,0.3-0.5,0.7c1.2,1,3.5,0.7,3.7,2.8
				c0,1.7-0.2,3.2-0.2,5c0.8-0.3,1.3-0.5,2.2-1c-1.2,2.2-2.3,3.8-3.3,5.7c-0.2,0-0.3-0.2-0.7-0.2C9,29.8,8.9,28,9.4,26.2
				c0-0.3,0.3-0.5,0.3-0.8c0-1.5,0.3-3.2-0.3-4.2C8.7,20.3,6.8,20.3,5.3,19.8z"/>
			<path class="st0" d="M28.6,34c-1.2-2-2.5-3.8-3.8-6c2.2,0.7,4.3,3.7,4.3,5.7C29,33.8,28.8,34,28.6,34z"/>
			<path class="st0" d="M39.3,16c-1.8-0.3-3.5-0.5-5.7,0.8c2.2,0.2,2.7,1.5,2.8,3c0.2,1.8,0.2,3.8,0.3,5.8c0,1.5-1.2,1.5-2,1.5
				c-0.3,0-1-0.8-1-1.3c-0.2-0.8-0.2-1.8,0-2.8c0.2-1.7-0.3-2.8-1.8-3.7c-1.8-1-3-2.3-2-4.7c0.2-0.3,0.2-0.7,0.2-1
				c0-0.3-0.1-0.5-0.5-0.7c-1.6-1.3-4.5-1-5.3-0.2c0.7,0.9,1.7,1.5,1.8,2.2c0,0.5-1.2,1.3-1.8,1.8C24,17,23.5,17,23.1,17
				s-1-0.3-1-0.5c-0.5-2.1-2.1-1.5-3.5-1.8c0.2,0.5,0.4,0.8,0.5,1.2c0.2,0.8,0.2,1.5,0.4,2.1c-0.7,0.2-1.3,0.3-2,0.3
				s-1.2-0.2-1.8-0.3C15.1,18,14.5,18,14.5,18c2.3,6.7,1.3,13.3-0.2,20.1c4.5-5.8,2.3-12.6,3.7-19c1.2,0.2,2.2,0.2,2.2,1.7
				c-0.2,3.2-0.3,6.5-0.8,9.7c-0.2,2.2-0.2,4.3,0.7,6.7c1.5-2.3,2.8-4.3,4.3-6.5c-1.2,0.5-2,1-3.3,1.7c0.3-2.2,0.5-4,0.7-5.7
				c0.2-1.3,0.8-2,2.3-2c1.2,0,2.7,0,3.3-0.7c0.6-0.7,0.7-2.2,0.8-3.3v-0.2c0.3-1.5,1.4-1.9,2.2-0.7c0.8,1,1.3,2.3,1.3,3.7
				c0.2,8.2,0.2,16.3,0.2,24.5c0,0.7,0,1.2,0,1.8c0.2,0,0.3,0,0.5,0c1.8-6.7,0.8-13.5,2-20.5c1,1,2,2,3.2,3.2
				c0.3-0.5,0.5-0.5,0.5-0.7c0.2-4.8,0.5-9.7,2-14.3C39.9,16.8,39.4,16,39.3,16z M24,23.1c-0.5,0.2-1.2,0.2-2.2,0.3
				c0.2-1.7,0-3.3,0.7-4.3s2.3-1.1,3.5-1.6c0.2,0,0.3,0.2,0.5,0.3C27.3,19.5,25.8,22.8,24,23.1z"/>
		</g>
		<g>
			<path class="st0" d="M23.3,46.9C10.5,46.9,0,36.4,0,23.6S10.5,0.3,23.3,0.3s23.3,10.5,23.3,23.3c0,6.7-2.8,13.1-8,17.5l-1.3-1.5
				c4.7-4,7.2-9.8,7.2-16C44.5,12,35,2.5,23.4,2.5S2.2,12,2.2,23.6s9.5,21.1,21.1,21.1c1.7,0,3.5-0.2,5.2-0.7l0.5,2
				C27.1,46.8,25.3,46.9,23.3,46.9z"/>
		</g>
	</g>
	<g>
		<path class="st0" d="M73,8.8h1.5c0.3,0,0.7,0.3,0.7,0.7l-2.7,24.3c0,0.5-0.3,0.8-0.8,0.8H57.9c-0.5,0-0.8-0.5-0.8-1l2.5-24
			c0-0.5,0.3-0.8,0.8-0.8h1.5c0.3,0,0.7,0.3,0.7,0.7l-2.2,21.3c0,0.5,0.3,1,0.8,1h8c0.5,0,0.8-0.3,0.8-0.8l2.2-21.3
			C72.3,9.2,72.5,8.8,73,8.8z"/>
		<path class="st0" d="M93.5,11.7H82.8c-0.5,0-0.8,0.3-0.8,0.8L81.3,19c0,0.5,0.3,1,0.8,1h9c0.5,0,0.8,0.3,0.7,0.8l-0.2,1.3
			c0,0.3-0.3,0.7-0.7,0.7h-9.3c-0.5,0-0.8,0.3-0.8,0.8L79.9,31c0,0.5,0.3,1,0.8,1h10.6c0.5,0,0.8,0.5,0.7,1l-0.5,1.3
			c-0.2,0.3-0.3,0.5-0.7,0.5H77.5c-0.5,0-0.8-0.5-0.8-1L77.9,23l0.3-2.8l0.8-8.3l0.2-2.2c0-0.5,0.3-0.8,0.8-0.8h13.6
			c0.5,0,0.8,0.3,0.7,0.8L94.2,11C94.2,11.5,93.8,11.7,93.5,11.7z"/>
		<path class="st0" d="M114.6,13.5l-1.8,16.6c0,0.2-0.2,0.3-0.3,0.5l-4.2,3.7c-0.2,0.2-0.3,0.2-0.5,0.2H97c-0.5,0-0.8-0.3-0.8-0.8
			l0.2-1.8l0,0l2.3-22.1C98.7,9.2,99,9,99.5,9h10.8c0.2,0,0.5,0.2,0.7,0.3l3.1,3.7C114.5,13,114.6,13.2,114.6,13.5z M111.3,13.5
			L110,12c-0.2-0.2-0.3-0.3-0.5-0.3h-7.2c-0.3,0-0.8,0.3-0.8,0.6l-1.8,18.5c0,0.5,0.3,0.8,0.8,0.8h7c0.2,0,0.3,0,0.5-0.2l1.8-1.7
			c0.2-0.2,0.2-0.3,0.3-0.5l1.7-15.1C111.6,14,111.5,13.7,111.3,13.5z"/>
		<path class="st0" d="M133.9,23.1h-16.5c-0.5,0-0.8-0.5-0.8-1l0.2-1c0-0.5,0.5-0.8,0.8-0.8H134c0.5,0,0.8,0.5,0.8,1l-0.2,1
			C134.6,22.8,134.4,23.1,133.9,23.1z"/>
		<path class="st0" d="M152.1,8.8c0.5,0,0.8,0.5,0.8,1L150.4,33c0,0-0.2,0.8-0.3,1.2c-0.3,0.5-1,0.3-1,0.3l0.7,2.5
			c0.2,0.5-0.3,1-0.8,1h-1.2c-0.3,0-0.7-0.3-0.8-0.7l-0.5-2.3c-0.2-0.3-0.5-0.7-0.8-0.7h-9.8c-0.5,0-0.8-0.5-0.8-1l2.3-21.6l0.2-2
			c0-0.5,0.3-0.8,0.8-0.8C138.4,8.8,152.1,8.8,152.1,8.8z M140.1,12.5l-2,18.3c0,0.5,0.3,1,0.8,1h7.8c0.5,0,0.8-0.3,0.8-0.8l2-18.3
			c0-0.5-0.3-1-0.8-1h-7.8C140.4,11.7,140.1,12,140.1,12.5z"/>
		<path class="st0" d="M157.3,15.6h1.3c0.5,0,0.8,0.5,0.8,1L157.6,34c0,0.5-0.3,0.7-0.8,0.7h-1.3c-0.5,0-0.8-0.5-0.8-1l1.8-17.3
			C156.4,16,156.9,15.6,157.3,15.6z M156.9,11l0.2-1.3c0-0.5,0.3-0.7,0.8-0.7h1.3c0.5,0,0.8,0.5,0.8,0.8l-0.2,1.3
			c0,0.5-0.3,0.7-0.8,0.7h-1.3C157.3,11.8,156.9,11.5,156.9,11z"/>
		<path class="st0" d="M178.3,16.5l-1.8,17.3c0,0.5-0.3,0.8-0.8,0.8h-1.2c-0.5,0-0.8-0.5-0.8-1l1.5-14.3c0-0.5-0.3-1-0.8-1H168
			c-0.5,0-0.8,0.3-0.8,0.8l-1.5,14.6c0,0.5-0.3,0.8-0.8,0.8h-1.2c-0.5,0-0.8-0.5-0.8-1l1.3-15.3l0.2-2c0-0.5,0.3-0.8,0.8-0.8h12.1
			C177.9,15.6,178.3,16,178.3,16.5z"/>
		<path class="st0" d="M195.9,15.5c0.5,0,0.8,0.5,0.8,1l-0.1,1.8l0,0l-2.3,22c0,0.5-0.3,0.8-0.8,0.8h-12c-0.3,0-0.8-0.3-0.8-0.7
			l-0.2-1.2c-0.2-0.5,0.3-1,0.8-1h9.5c0.5,0,0.8-0.3,0.8-0.8l0.5-4c0-0.5-0.3-1-0.8-1h-9.3c-0.5,0-0.8-0.5-0.8-1l0.2-1.8l0,0
			l1.2-13.5c0-0.5,0.3-0.7,0.8-0.7C183.4,15.5,195.9,15.5,195.9,15.5z M192.4,29l1-9.8c0-0.5-0.3-1-0.8-1H186
			c-0.5,0-0.8,0.3-0.8,0.8l-1,9.8c0,0.5,0.3,1,0.8,1h6.5C192,29.8,192.4,29.5,192.4,29z"/>
	</g>
	<path class="st0" d="M196.9,40l0.2-1.3c0-0.5,0.3-0.7,0.8-0.7h1.3c0.5,0,0.8,0.5,0.8,0.8l-0.2,1.3c0,0.5-0.3,0.7-0.8,0.7h-1.3
		C197.3,41,196.9,40.5,196.9,40z"/>
</g>
</svg>
