<?xml version="1.0" encoding="utf-8"?>
<!-- Generator: Adobe Illustrator 23.0.2, SVG Export Plug-In . SVG Version: 6.00 Build 0)  -->
<svg version="1.1" id="图层_1" xmlns="http://www.w3.org/2000/svg" xmlns:xlink="http://www.w3.org/1999/xlink" x="0px" y="0px"
	 viewBox="0 0 35 35" style="enable-background:new 0 0 35 35;" xml:space="preserve">
<style type="text/css">
	.st0{fill:#FFCE00;}
</style>
<g>
	<polygon class="st0" points="14.9,7.4 14.2,0.5 12.1,0.5 13.5,5.8 10.8,5 9.4,0.5 7.8,0.5 9.4,5.8 	"/>
	<rect x="16.6" y="0.5" class="st0" width="1.9" height="7"/>
	<path class="st0" d="M27.2,0.9L21,0.4l-0.9,7l5.4-1.5L27.2,0.9z M21.7,5.8l0.9-3.9h3L24.6,5L21.7,5.8z"/>
	<path class="st0" d="M26.3,8.8H8.7L3,17.2l14.5,17.4L32,17.2L26.3,8.8z M17.5,28.2c-4.3,0-3.7-2.8-3.7-2.8h7.3
		C21.2,25.4,21.4,28.2,17.5,28.2z M22.4,24.3c0,0-2.7,1.3-4.6-0.3v-2.4l0.4-0.4l0.4-0.4c0.3-0.3,0.3-0.6,0-0.8
		c-0.3-0.3-0.6-0.3-0.8,0l-0.4,0.4l-0.4-0.4c-0.3-0.3-0.6-0.3-0.8,0c-0.3,0.3-0.3,0.6,0,0.8l0.4,0.4l0.4,0.4v2.4
		c-1.9,1.5-4.6,0.3-4.6,0.3c1.4-4.1-3.7-5-3.7-5l1.9-3.8l4.3,1.2l-4.3-2.6c1.5-3.7,4.8-3.9,6.7-3.9c1.9,0,5.2,0.5,6.7,3.9L20,16.6
		l4.3-1.2l1.9,3.8C26.1,19.3,21.1,20.2,22.4,24.3z"/>
</g>
</svg>
