<?xml version="1.0" encoding="utf-8"?>
<!-- Generator: Adobe Illustrator 23.0.2, SVG Export Plug-In . SVG Version: 6.00 Build 0)  -->
<svg version="1.1" id="图层_1" xmlns="http://www.w3.org/2000/svg" xmlns:xlink="http://www.w3.org/1999/xlink" x="0px" y="0px"
	 viewBox="0 0 86.8 61.4" style="enable-background:new 0 0 86.8 61.4;" xml:space="preserve">
<style type="text/css">
	.st0{fill:none;}
	.st1{fill:#FFCE00;}
</style>
<polygon class="st0" points="155,-31.1 152.3,-19.5 161.2,-22 163.9,-31.1 "/>
<polygon class="st1" points="40.5,8.8 39.6,0.7 37.2,0.7 38.8,7 35.6,6 34,0.7 32.1,0.7 34,7 "/>
<rect x="42.4" y="0.7" class="st1" width="2.2" height="8.2"/>
<path class="st1" d="M54.9,1.2l-7.3-0.6l-1,8.2L53,7L54.9,1.2z M48.4,7l1.1-4.6H53L51.9,6L48.4,7z"/>
<path class="st1" d="M53.9,10.5H33.1l-6.6,9.8l17,20.5l17-20.5L53.9,10.5z M43.5,33.3c-5,0-4.3-3.3-4.3-3.3h8.6
	C47.8,30,48.1,33.3,43.5,33.3z M49.3,28.7c0,0-3.2,1.5-5.4-0.3v-2.8l0.5-0.5l0.5-0.5c0.3-0.3,0.3-0.7,0-0.9c-0.3-0.3-0.7-0.3-0.9,0
	l-0.5,0.5L43,23.7c-0.3-0.3-0.7-0.3-0.9,0c-0.3,0.3-0.3,0.7,0,0.9l0.5,0.5l0.5,0.5v2.8c-2.2,1.8-5.4,0.3-5.4,0.3
	c1.6-4.8-4.3-5.9-4.3-5.9l2.2-4.5l5,1.4l-5-3c1.8-4.4,5.7-4.6,7.9-4.6s6.1,0.6,7.9,4.6l-5,3l5-1.4l2.2,4.5
	C53.6,22.8,47.7,23.9,49.3,28.7z"/>
<g>
	<polygon class="st1" points="9.3,52.5 14.9,52.5 14.9,53.1 12.8,54.9 11.6,53.4 9.3,53.4 11.6,56 7.8,59.4 9.7,59.4 12.5,57.1 
		14.7,59.4 16.5,59.4 13.8,56.1 16.5,53.8 16.6,53.1 16.7,52.5 16.8,51.1 9.4,51.1 	"/>
	<polygon class="st1" points="9.1,48.1 8.6,45.1 6.8,45.1 7.9,48.1 	"/>
	<polygon class="st1" points="16.6,45.5 10.8,45.5 10.7,46 9.1,50.7 10.3,50.7 12.1,46.9 14.9,46.9 14.5,50.5 17.1,50.5 17.6,49.1 
		16.2,49.1 	"/>
	<polygon class="st1" points="9.2,56.7 9.3,55.2 7.8,56.2 8.5,49.2 5.9,49.2 5.7,50.7 6.9,50.7 6,58.9 	"/>
	<polygon class="st1" points="25,48.1 24.6,45.1 22.8,45.1 23.8,48.1 	"/>
	<polygon class="st1" points="30.7,45.1 29.1,45.1 28.7,49.4 25.5,49.4 25.3,51 28.5,51 27.6,59.4 29.2,59.4 30.1,51 33.2,51 
		33.4,49.4 30.3,49.4 	"/>
	<polygon class="st1" points="24.6,49.2 21.7,49.2 21.6,50.7 22.9,50.7 22,59.1 25.6,57.6 25.7,55.9 23.9,56.7 	"/>
	<polygon class="st1" points="39.4,46.2 38.1,46.2 37.1,55.4 38.4,55.4 	"/>
	<polygon class="st1" points="40.4,45.1 39.7,51.8 37.6,59.4 38.8,59.4 41.1,52.4 41.9,45.1 	"/>
	<polygon class="st1" points="42.3,47 45.1,47 44.9,48.8 42.4,48.8 41.4,57.5 42.9,57.5 43.6,50.2 44.7,50.2 43.8,59.4 45.3,59.4 
		46.2,50.2 47.3,50.2 46.7,56.1 46.1,56.1 46.2,57.5 48,57.5 48.9,48.8 46.4,48.8 46.6,47 49.4,47 49.6,45.5 42.4,45.5 	"/>
	<polygon class="st1" points="63.4,52.7 61.8,52.7 61.7,53.5 53.4,53.5 53.2,54.9 61.6,54.9 61.3,58 59.9,58 60.2,59.4 62.7,59.4 
		63.2,54.9 65,54.9 65.2,53.5 63.3,53.5 	"/>
	<polygon class="st1" points="55.1,55.5 56.4,58.6 57.7,58.6 56.9,55.5 	"/>
	<polygon class="st1" points="79,46.4 79.2,45.1 77.5,45.1 77.4,46.4 75.1,46.4 75,47.9 81.2,47.9 81.3,46.4 	"/>
	<polygon class="st1" points="80.4,49.4 75.4,49.4 75.3,50.5 73.6,59.4 74.9,59.4 76.8,50.9 78.7,50.9 77.9,59.2 79.9,59.2 
		80.4,57.8 79.5,57.8 	"/>
	<polygon class="st1" points="72.7,50.6 72.7,48.2 71.8,48.2 72.1,50.6 	"/>
	<polygon class="st1" points="72.2,56.1 72.2,53.3 71.3,53.3 71.5,56.1 	"/>
	<path class="st1" d="M55.9,50.9l0.2-1.3h8.5l0.5-4.2H54.9l-0.7,6.8h10.2l0.8-1.4H55.9z M56.3,46.8h7l-0.1,1.5h-7L56.3,46.8z"/>
	<path class="st1" d="M72.8,46.2l0.6-1.1h-1.5l-0.4,1.1h-1.1L70,51.3h-0.6l-0.1,1.3h0.6l-1,6.8h0.9l1.4-6.8h1.7L72.3,58h-0.9
		l0.2,1.4h1.8l1.4-13.2H72.8z M73,51.3h-1.7l0.4-3.7h1.7L73,51.3z"/>
</g>
</svg>
