<?xml version="1.0" encoding="utf-8"?>
<!-- Generator: Adobe Illustrator 23.0.2, SVG Export Plug-In . SVG Version: 6.00 Build 0)  -->
<svg version="1.1" id="图层_1" xmlns="http://www.w3.org/2000/svg" xmlns:xlink="http://www.w3.org/1999/xlink" x="0px" y="0px"
	 viewBox="0 0 100 100" style="enable-background:new 0 0 100 100;" xml:space="preserve">
<style type="text/css">
	.st0{fill:#553B24;}
	.st1{fill:none;}
	.st2{fill:#F5F1E6;}
</style>
<g>
	<polygon class="st0" points="50,100 6.57,47.62 23.51,22.56 76.49,22.56 93.43,47.62 	"/>
	<g>
		<polygon class="st1" points="62.72,4.59 60.03,16.23 68.89,13.72 71.61,4.59 		"/>
		<polygon class="st0" points="37.31,0 40.05,16.23 30.24,13.72 28.95,0 23.38,0 27.17,16.23 44.45,20.93 42.49,0 		"/>
		<rect x="47.2" class="st0" width="5.6" height="20.93"/>
		<path class="st0" d="M58.01,0l-2.47,20.93l16.08-4.7l5-14.79L58.01,0z M68.89,13.72l-8.86,2.51l2.7-11.64h8.89L68.89,13.72z"/>
	</g>
	<g>
		<path class="st2" d="M39.06,72.49c0,0-1.83,8.41,10.95,8.41c11.79,0,10.94-8.41,10.94-8.41H39.06z"/>
		<path class="st2" d="M75.78,53.99l-5.65-11.6l-12.86,3.54l12.86-7.75c-4.45-10.23-14.48-11.78-20.15-11.78
			c-5.66,0-15.58,0.47-20.13,11.78l12.86,7.75l-12.86-3.54l-5.65,11.6c0,0,14.96,2.88,10.99,15.14c0,0,8.11,3.92,13.82-0.69v-7.28
			l-1.4-1.4l-1.18-1.18c-0.65-0.65-0.65-1.71,0-2.36c0.65-0.65,1.71-0.65,2.36,0L50,57.4l1.18-1.18c0.65-0.65,1.71-0.65,2.36,0
			c0.65,0.65,0.65,1.71,0,2.36l-1.18,1.18l-1.4,1.4v7.28c5.71,4.6,13.82,0.69,13.82,0.69C60.82,56.87,75.78,53.99,75.78,53.99z"/>
	</g>
</g>
</svg>
